/* XPM */
static char *Arch_Blue[] = {
/* columns rows colors chars-per-pixel */
"20 20 14 1 ",
"  c None",
". c #1792D0",
"X c #1793D0",
"o c #1792D1",
"O c #1693D1",
"+ c #1793D1",
"@ c #1792D2",
"# c #1694D1",
"$ c #1794D1",
"% c #1794D2",
"& c #1892D1",
"* c #1893D1",
"= c #1892D2",
"- c #1894D1",
/* pixels */
"                    ",
"         +%         ",
"         ++         ",
"         ++         ",
"        *+++        ",
"        ++++        ",
"        +++++       ",
"       ++++++       ",
"      ++++++++      ",
"      ++++++++      ",
"     ++++++++++     ",
"     ++++%+++++     ",
"    %+++*  +++++    ",
"    ++++    ++++    ",
"   +++++    +++++   ",
"  *++++%    +++++   ",
"  ++++++     +++++  ",
" +++*          -+++ ",
" ++              ++ ",
"                    "
};
