/* XPM */
static char *Arch_Blue[] = {
/* columns rows colors chars-per-pixel */
"20 20 2 1 ",
"  c None",
". c #1793D1",
/* pixels */
"                    ",
"         ..         ",
"         ..         ",
"         ..         ",
"        ....        ",
"        ....        ",
"       ......       ",
"       ......       ",
"      ........      ",
"      ........      ",
"     ..........     ",
"     ..........     ",
"    .....  .....    ",
"    ....    ....    ",
"   .....    .....   ",
"   .....    .....   ",
"  .....      .....  ",
" ....          .... ",
" ..              .. ",
"                    "
};
