<svg xmlns="http://www.w3.org/2000/svg" height="200px" width="200px" viewBox="0 0 200 200">
 <path fill="#000000" d="m100 0.89615c-8.77 21.486-14.06 35.559-23.82 56.406 5.99 6.342 13.33 13.691 25.25 22.032-12.82-5.276-21.55-10.535-28.09-16.032-12.49 26.057-32.08 63.138-71.781 134.47 31.201-18.01 55.401-29.1 77.941-33.34-0.97-4.16-1.51-8.68-1.47-13.38l0.03-0.97c0.49-19.99 10.9-35.38 23.22-34.34s21.9 18.13 21.4 38.12c-0.09 3.76-0.51 7.37-1.25 10.72 22.29 4.37 46.24 15.43 77 33.19-6.07-11.17-11.51-21.22-16.68-30.81-8.15-6.32-16.63-14.54-33.97-23.44 11.91 3.1 20.47 6.66 27.12 10.66-52.6-97.938-56.87-110.95-74.9-153.28zm6.01"/>
</svg>
