/* XPM */
static char *Arch[] = {
/* columns rows colors chars-per-pixel */
"20 20 42 1 ",
"  c None",
". c #1693D1",
"X c #1793D1",
"o c #1893D1",
"O c #1894D1",
"+ c #1994D1",
"@ c #1B95D2",
"# c #1F97D3",
"$ c #2097D3",
"% c #2298D3",
"& c #2399D3",
"* c #2399D4",
"= c #2599D4",
"- c #259AD4",
"; c #269AD4",
": c #289BD4",
"> c #2A9CD5",
", c #2C9DD5",
"< c #2F9ED6",
"1 c #2F9FD6",
"2 c #309FD6",
"3 c #32A0D6",
"4 c #33A0D7",
"5 c #34A0D7",
"6 c #38A2D7",
"7 c #37A2D8",
"8 c #38A2D8",
"9 c #3BA4D8",
"0 c #3CA4D8",
"q c #3CA4D9",
"w c #3DA5D9",
"e c #40A6D9",
"r c #41A6D9",
"t c #42A7DA",
"y c #44A8DA",
"u c #46A9DA",
"i c #4AABDB",
"p c #4FADDC",
"a c #51AEDD",
"s c #52AEDD",
"d c #53AFDD",
"f c #58B1DE",
/* pixels */
"                    ",
"         +-         ",
"         X*         ",
"         +#         ",
"        :&$<        ",
"        2<-<        ",
"        65<<q       ",
"       utq638       ",
"      apiut98y      ",
"      fat2>:>3      ",
"     aq-+XXXX+&     ",
"     -oXXXXXXXo     ",
"    XXXX   XXXXX    ",
"    XXXX    XXXX    ",
"   XXXXX    XXXXX   ",
"  XXXXXX    XXXXX   ",
"  XXXXX      XXXXX  ",
" XXX           XXXX ",
" X               XX ",
"                    "
};
