/* XPM */
static char *Debian[] = {
/* columns rows colors chars-per-pixel */
"20 20 2 1 ",
"  c None",
". c #DF0451",
/* pixels */
"                    ",
"        ....        ",
"      .........     ",
"     ...     ...    ",
"    ..        ...   ",
"    .          ..   ",
"   ..          ..   ",
"   .            .   ",
"   .            .   ",
"   .           .    ",
"   .           .    ",
"   .     .    .     ",
"   .                ",
"    .               ",
"    .               ",
"     .              ",
"      .             ",
"       .            ",
"                    ",
"                    "
};
