/* XPM */
static char *Haskell_White[] = {
/* columns rows colors chars-per-pixel */
"28 20 2 1 ",
"  c None",
". c white",
/* pixels */
".....  .....                ",
" .....  .....               ",
"  ..... .....               ",
"  .....  .....              ",
"   .....  ....              ",
"    ..... .....             ",
"    .....  .....  ..........",
"     .....  ....  ..........",
"      ..... .....  .........",
"      .....  .....          ",
"      .....  .....          ",
"      ..... .......  .......",
"     .....  ........ .......",
"    .....  .........  ......",
"    ..... ..... .....       ",
"   .....  ....   .....      ",
"  .....  .....   .....      ",
"  ..... .....     .....     ",
" .....  .....      .....    ",
".....  .....       .....    "
};
