/* XPM */
static char *Kali[] = {
/* columns rows colors chars-per-pixel */
"20 20 120 2 ",
"   c None",
".  c #242424",
"X  c #252525",
"o  c #262626",
"O  c #292929",
"+  c #2A2A2A",
"@  c #2D2D2D",
"#  c #2F2F2F",
"$  c #303030",
"%  c #3A3A3A",
"&  c #404040",
"*  c #454545",
"=  c #474747",
"-  c #4A4A4A",
";  c #4C4C4C",
":  c #4E4E4E",
">  c #535353",
",  c #595959",
"<  c #5A595A",
"1  c #5B5B5B",
"2  c #5F5F5F",
"3  c #626263",
"4  c #636364",
"5  c #646464",
"6  c #656565",
"7  c #676767",
"8  c #686868",
"9  c #6B6B6B",
"0  c #737373",
"q  c #777777",
"w  c #787878",
"e  c #818181",
"r  c #858585",
"t  c #858586",
"y  c #898889",
"u  c #898989",
"i  c #8D8C8D",
"p  c #8E8E8E",
"a  c #8F8F8F",
"s  c #919191",
"d  c #939393",
"f  c #959595",
"g  c #999999",
"h  c #9A9A9A",
"j  c #9C9C9C",
"k  c #9F9F9F",
"l  c #A0A0A0",
"z  c #A2A2A2",
"x  c #A9A9AA",
"c  c #AAA9AA",
"v  c #AAAAAA",
"b  c #AAAAAB",
"n  c #ACACAC",
"m  c #ADADAD",
"M  c #AFAFAF",
"N  c #B0B0B0",
"B  c #B0B0B1",
"V  c #B2B1B2",
"C  c #B2B2B2",
"Z  c #B3B3B3",
"A  c #B4B3B4",
"S  c #B4B4B4",
"D  c #B4B4B5",
"F  c #B5B4B5",
"G  c #B5B5B5",
"H  c #B6B6B6",
"J  c #B7B6B7",
"K  c #B7B7B8",
"L  c #B8B7B8",
"P  c #B8B8B8",
"I  c #B9B8B9",
"U  c #B9B9B9",
"Y  c #BAB9BA",
"T  c #BBBABB",
"R  c #BBBBBB",
"E  c #BCBBBC",
"W  c #BCBCBC",
"Q  c #BDBCBD",
"!  c #BEBDBE",
"~  c #BEBEBE",
"^  c #BFBEBF",
"/  c #BFBFBF",
"(  c #C0BFC0",
")  c #C0C0C0",
"_  c #C1C0C1",
"`  c #C1C1C1",
"'  c #C2C2C2",
"]  c #C3C2C2",
"[  c #C3C2C3",
"{  c #C4C3C4",
"}  c #C4C4C4",
"|  c #C5C4C4",
" . c #C7C7C7",
".. c #C9C9C9",
"X. c #CDCDCD",
"o. c #CECECF",
"O. c #D0D0D0",
"+. c #D6D6D6",
"@. c #D9D9D9",
"#. c #DBDBDB",
"$. c #DCDCDC",
"%. c #DDDDDD",
"&. c #DEDEDE",
"*. c #DFDFDF",
"=. c #E0E0E0",
"-. c #E1E1E1",
";. c #E2E2E2",
":. c #E3E3E3",
">. c #E4E4E4",
",. c #E6E6E6",
"<. c #E7E7E7",
"1. c #E8E8E8",
"2. c #E9E9E9",
"3. c #EAEAEA",
"4. c #EBEBEB",
"5. c #ECECEC",
"6. c #EDEDED",
"7. c #EEEEEE",
"8. c #EFEFEF",
"9. c #F0F0F0",
/* pixels */
"                                        ",
"              4.4.4.4.4.4.              ",
"          4.4.4.4.5.4.4.4.4.4.          ",
"        4.4.5.5.#.+.:.5.4.4.4.4.        ",
"      4.4.5.%.%.O.j z >.5.4.4.4.4.      ",
"    4.4.%.g 2 - 1 5 : p >.5.4.4.4.4.    ",
"    5.o.8 # % > : $ . # e :.5.4.4.4.    ",
"  5.%.t + 2 o.>.%.P 1 . + t 4.4.4.4.4.  ",
"  :.J 5 + C 9.4.5.5.#.2 + & C 5.4.4.4.  ",
"  Q c w + j 5.4.4.4.5.O.5 . 0 4.4.4.4.  ",
"  C C g = =  .5.5.4.4.5.:.p % d 4.4.4.  ",
"  L J C f 2 : z :.5.5.4.5.>.5 q 4.4.4.  ",
"  Q P J A n u 1 3 z %.5.4.4. .%.5.4.4.  ",
"    Q P K J C c p 4 9 ..5.4.5.5.4.4.    ",
"    ) Q E P J C n c u 0 +.5.4.4.4.4.    ",
"      ) ) Q P J C n n d n 5.4.4.4.      ",
"        { ) Q P L J C c Q 5.4.4.        ",
"           .) Q Q P J ) >.4.4.          ",
"              ) ) Q ) :.5.              ",
"                                        "
};
