/* XPM */
static char *Linux[] = {
/* columns rows colors chars-per-pixel */
"20 20 181 2 ",
"   c None",
".  c #000000",
"X  c #010101",
"o  c #010203",
"O  c #020202",
"+  c #020203",
"@  c #030303",
"#  c #060606",
"$  c #080808",
"%  c #080909",
"&  c #0B0C0C",
"*  c #0C0C0C",
"=  c #0D0D0D",
"-  c #0F0F0F",
";  c #111213",
":  c #141414",
">  c #171717",
",  c #161719",
"<  c #191A1C",
"1  c #1B1C1C",
"2  c #1C1C1C",
"3  c #1D1D21",
"4  c #1D1F21",
"5  c #1F1F22",
"6  c #1E1E23",
"7  c #1E2022",
"8  c #202020",
"9  c #212222",
"0  c #232323",
"q  c #252627",
"w  c #282929",
"e  c #2A2B2B",
"r  c #2A2B2D",
"t  c #2B2B2F",
"y  c #2D2D2D",
"u  c #2F2F30",
"i  c #2F3133",
"p  c #313130",
"a  c #313131",
"s  c #323232",
"d  c #313234",
"f  c #323335",
"g  c #333336",
"h  c #333536",
"j  c #343636",
"k  c #373738",
"l  c #3B3C3D",
"z  c #3D3D3D",
"x  c #3C3D3E",
"c  c #404042",
"v  c #414245",
"b  c #414345",
"n  c #434444",
"m  c #454647",
"M  c #494949",
"N  c #4D4E4E",
"B  c #4E4F4F",
"V  c #4D4E50",
"C  c #4E4F50",
"Z  c #4F4F52",
"A  c #505051",
"S  c #505053",
"D  c #505252",
"F  c #515154",
"G  c #535455",
"H  c #555557",
"J  c #5A5B5C",
"K  c #5C5C5C",
"L  c #5D5D5D",
"P  c #5F6061",
"I  c #606161",
"U  c #616363",
"Y  c #646464",
"T  c #656566",
"R  c #646467",
"E  c #666668",
"W  c #676768",
"Q  c #6A6A6A",
"!  c #6A6C6D",
"~  c #6E6E6E",
"^  c #6F7172",
"/  c #737475",
"(  c #747475",
")  c #757677",
"_  c #767778",
"`  c #7A7B7C",
"'  c #7B7B7C",
"]  c #7B7D7D",
"[  c #7C7C7D",
"{  c #818282",
"}  c #828282",
"|  c #818384",
" . c #858686",
".. c #858687",
"X. c #878788",
"o. c #89898A",
"O. c #898A8B",
"+. c #8B8B8B",
"@. c #8D8D8D",
"#. c #8E8E8E",
"$. c #8F8E8E",
"%. c #8E8E8F",
"&. c #8E9091",
"*. c #8F9091",
"=. c #929292",
"-. c #929393",
";. c #939495",
":. c #939496",
">. c #949495",
",. c #959596",
"<. c #959797",
"1. c #969798",
"2. c #979899",
"3. c #979999",
"4. c #9E9FA1",
"5. c #A0A0A0",
"6. c #A0A2A2",
"7. c #A2A3A3",
"8. c #A3A3A3",
"9. c #A2A4A5",
"0. c #A4A4A4",
"q. c #A4A4A5",
"w. c #A5A5A6",
"e. c #A5A6A7",
"r. c #A9A9A9",
"t. c #A8A9AA",
"y. c #A9AAAA",
"u. c #AAAAAA",
"i. c #ABABAB",
"p. c #AAACAD",
"a. c #ABACAD",
"s. c #B0B2B3",
"d. c #B4B5B5",
"f. c #B4B5B6",
"g. c #B7B8B9",
"h. c #B8B9B9",
"j. c #B8B9BA",
"k. c #BABABA",
"l. c #BDBDBD",
"z. c #BEBEBE",
"x. c #C3C4C4",
"c. c #C5C6C6",
"v. c #CCCCCD",
"b. c #CFCFCF",
"n. c #D0D0D0",
"m. c #D2D2D2",
"M. c #D3D3D3",
"N. c #D5D5D5",
"B. c #D8D8D8",
"V. c #DADBDB",
"C. c #DBDBDB",
"Z. c #DADBDC",
"A. c #DDDDDD",
"S. c #DDDDDE",
"D. c #DEDFDF",
"F. c #E0E0E0",
"G. c #E0E1E2",
"H. c #E1E1E3",
"J. c #E2E2E2",
"K. c #E5E5E5",
"L. c #E6E7E8",
"P. c #E9E9E9",
"I. c #EBEBEB",
"U. c #ECEDED",
"Y. c #EDEDED",
"T. c #EDEEEE",
"R. c #EEEEEE",
"E. c #EFF0F0",
"W. c #F0F0F0",
"Q. c #F0F1F1",
"!. c #F2F2F2",
"~. c #F4F4F4",
"^. c #F5F5F5",
"/. c #F6F6F6",
"(. c #F9F9F9",
"). c #FAFAFA",
"_. c #FBFAFB",
"`. c #FBFBFB",
"'. c #FCFCFC",
"]. c #FEFEFE",
"[. c #FFFFFF",
/* pixels */
"              d G U U C r               ",
"          D 7.C.Q.).).Q.m.-.c           ",
"      7 @.R.[.[.[.[.[.[.[.[.F.)         ",
"    4 7.[.[.R.j...^ ] 0.F.[.[.).+.      ",
"    +.[.Q.<.j = z p + + q +.v.c.d.2.    ",
"  B R.Z.C + + p R.C.2 + $ k m 4 u Y '   ",
"  0.D.P B + + 8 z.y.= : y.*.e X.F.[.p.  ",
"d v.) z.y.+ + + = = + : Y 0 @.[.[.[.j.< ",
"! :.7.[.c.& + + + + + + + c ~.[.[.[.D.h ",
"p.D K.[.~.J $ + + + + + + } [.[.[.[.P.v ",
"/ : ..:.7.y.*.| ) K y + + -.[.[.[.[.P.v ",
"; + # K 7.y.1.+.s.R.P.~ + [ [.[.[.[.D.d ",
"+ + Y ).[.[.[.P.d.4.L.~.Q 8 g.[.[.[.j., ",
"  e C.[.[.[.[.[.[.Q.F.[.R.M 1 x.[.[.'   ",
"  9.).[.[.[.[.[.[.[.[.[.[.m.2 l R.m.i   ",
"    <.[.[.[.[.[.[.[.[.[.[.[.@.+ 2.}     ",
"    4 0.[.[.[.[.[.[.[.[.[.[.P.p z       ",
"      4 @.R.[.[.[.[.[.[.[.[.R.*.        ",
"          G 0.D.~.'.).Q.N.<.D           ",
"              d H E Y C y               "
};
